HIERARCHY
ROOT Hips
{
     OFFSET 1.88212 96.90440 -13.34250
     CHANNELS 6 Xposition Yposition Zposition Zrotation Xrotation Yrotation
     JOINT Spine
     {
          OFFSET 0.00000 11.89050 0.00000
          CHANNELS 3 Zrotation Xrotation Yrotation
          JOINT Spine1
          {
               OFFSET -0.00000 25.65740 0.12766
               CHANNELS 3 Zrotation Xrotation Yrotation
               JOINT HEad
               {
                    OFFSET 0.00000 8.73416 0.01134
                    CHANNELS 3 Zrotation Xrotation Yrotation
                    End Site
                    {
                         OFFSET -0.29000 12.77420 2.51395
                    }
               }
               JOINT LeftShoulder1
               {
                    OFFSET 8.99000 -0.36225 -0.22000
                    CHANNELS 3 Zrotation Xrotation Yrotation
                    JOINT LeftArm
                    {
                         OFFSET 10.28270 -0.00338 0.32212
                         CHANNELS 3 Zrotation Xrotation Yrotation
                         JOINT LeftForeArm
                         {
                              OFFSET 32.76690 0.09914 -1.42434
                              CHANNELS 3 Zrotation Xrotation Yrotation
                              JOINT LeftHand
                              {
                                   OFFSET 27.56430 0.08536 1.02216
                                   CHANNELS 3 Zrotation Xrotation Yrotation
                                   End Site
                                   {
                                        OFFSET 16.74430 -0.60000 1.50291
                                   }
                              }
                         }
                    }
               }
               JOINT RightShoulder
               {
                    OFFSET -8.99000 -0.36225 -0.22000
                    CHANNELS 3 Zrotation Xrotation Yrotation
                    JOINT RightArm
                    {
                         OFFSET -10.28270 -0.00338 0.32212
                         CHANNELS 3 Zrotation Xrotation Yrotation
                         JOINT RightForeArm
                         {
                              OFFSET -32.89710 0.09914 -1.42434
                              CHANNELS 3 Zrotation Xrotation Yrotation
                              JOINT RightHand
                              {
                                   OFFSET -27.49210 0.08536 1.02216
                                   CHANNELS 3 Zrotation Xrotation Yrotation
                                   End Site
                                   {
                                        OFFSET -16.63120 -0.60000 1.50291
                                   }
                              }
                         }
                    }
               }
          }
     }
     JOINT LeftUpLeg
     {
          OFFSET 8.94580 -8.66707 0.10165
          CHANNELS 3 Zrotation Xrotation Yrotation
          JOINT LeftLeg
          {
               OFFSET 0.00000 -44.42270 1.37270
               CHANNELS 3 Zrotation Xrotation Yrotation
               JOINT LeftFoot
               {
                    OFFSET -0.25355 -42.09240 -1.46059
                    CHANNELS 3 Zrotation Xrotation Yrotation
                    JOINT LeftToes
                    {
                         OFFSET -0.04000 -4.41509 8.49910
                         CHANNELS 3 Zrotation Xrotation Yrotation
                         End Site
                         {
                              OFFSET 0.08000 -0.04745 9.77979
                         }
                    }
               }
          }
     }
     JOINT RightUpLeg
     {
          OFFSET -8.94580 -8.66707 0.10165
          CHANNELS 3 Zrotation Xrotation Yrotation
          JOINT RightLeg
          {
               OFFSET 0.00000 -44.42270 1.37270
               CHANNELS 3 Zrotation Xrotation Yrotation
               JOINT RightFoot
               {
                    OFFSET 0.25355 -42.09240 -1.46059
                    CHANNELS 3 Zrotation Xrotation Yrotation
                    JOINT RightToes
                    {
                         OFFSET 0.04000 -4.41509 8.49910
                         CHANNELS 3 Zrotation Xrotation Yrotation
                         End Site
                         {
                              OFFSET -0.08000 -0.13745 9.77979
                         }
                    }
               }
          }
     }
}
MOTION
Frames: 8
Frame Time: 0.01667
39.81710 91.78152 -19.92690 6.65329 10.97311 158.79716 4.03330 20.65008 -35.88162 -0.01960 0.00614 0.10037 -1.48728 10.61872 13.29185 -13.57748 -0.37633 61.13728 -100.14608 -23.54589 -85.69792 -70.91767 62.27909 -57.21267 27.67457 13.06174 -12.05317 -5.19300 6.00535 43.61812 108.29723 -40.76931 72.02325 11.24135 50.29475 126.89101 47.34218 17.91707 -24.31421 9.71888 -15.06994 -25.48620 -11.69524 8.05705 59.70292 19.65115 -0.12249 0.01466 -18.03218 0.45986 -71.43460 -29.54803 8.63565 7.36511 53.78741 46.30146 -29.36535 -28.47471 -0.04614 -0.03213 8.01037 -44.08817 8.19919 
39.97897 91.25943 -19.71022 4.55370 13.09505 166.47057 4.29101 22.62582 -39.12522 -0.01694 0.00287 0.08237 0.08254 8.11557 13.25393 -13.09855 -0.27960 58.69848 -103.73463 -32.01803 -86.64750 -65.28396 62.75857 -64.14945 26.35841 8.97986 -21.47975 -10.79417 -1.02679 49.67538 113.10344 -42.42096 79.03558 -5.92660 41.30180 128.01132 48.99524 12.87155 -42.21379 5.53961 -14.84330 -28.97787 -11.67274 7.57183 58.75723 23.29913 -0.10127 0.02479 -20.70549 1.09318 -73.42879 -29.19310 11.47180 5.50751 55.46962 45.77795 -32.64736 -28.08118 -0.00076 -0.02636 6.19717 -45.15747 4.72841 
40.18008 90.68018 -19.40689 2.52007 14.77742 173.18622 4.63513 24.44190 -40.10690 -0.01741 0.00328 0.06768 1.55919 5.17970 13.09689 -12.49181 0.34907 55.07928 -107.30602 -40.73120 -87.82973 -61.05346 61.54801 -69.11833 17.41880 -2.79109 -18.20680 -16.25535 -8.28333 53.57769 115.98650 -44.21669 84.39478 -20.68196 33.16199 121.09360 44.89724 10.89509 -49.59058 2.20219 -14.53788 -30.43237 -12.12408 7.55216 56.67657 26.82543 -0.08273 0.02975 -23.14680 1.43640 -75.09432 -28.65927 13.82859 4.12899 56.68435 44.78737 -36.27132 -27.30192 0.00385 -0.01991 5.48836 -46.13589 5.00791 
40.43897 90.06129 -19.04236 0.63746 16.10828 178.95523 4.92402 26.10402 -39.00488 -0.01763 0.00311 0.05639 2.83908 2.44543 11.38911 -11.75169 1.33937 50.47422 -109.75224 -45.67759 -88.50043 -60.18737 61.35420 -71.31200 28.03971 10.75240 -17.82166 -22.04918 -15.22518 55.67173 117.24599 -46.32278 87.96072 -33.14328 28.88510 107.64606 38.69370 -12.05548 -38.52958 -0.31034 -14.34483 -29.98608 -13.00292 8.08239 53.59295 30.14078 -0.06474 0.03228 -25.37859 1.50970 -76.42019 -28.04902 15.76494 3.20544 57.55531 43.66065 -40.06857 -26.81645 0.01094 -0.01361 5.37894 -47.10340 5.10113 
40.77700 89.40989 -18.64116 -1.04278 17.16476 183.83565 5.04560 27.61408 -36.01132 -0.01722 0.00399 0.04694 3.84965 -0.08429 8.27180 -10.83668 2.54536 44.91029 -111.07860 -48.22928 -88.62274 -60.71540 61.64669 -72.04312 21.81890 2.71861 -16.37657 -28.62569 -21.43801 55.96981 117.21661 -48.47898 89.70228 -39.04323 29.19444 88.01743 34.46647 3.09924 -27.53270 -2.01898 -14.38448 -27.81886 -14.22566 9.27321 49.64593 33.16353 -0.04796 0.03290 -27.39727 1.32285 -77.44039 -27.40899 17.34037 2.68529 58.23064 42.53386 -43.90004 -26.26883 0.01245 -0.00732 5.84328 -48.07127 6.44561 
41.19786 88.74107 -18.24157 -2.49653 18.00859 187.90968 4.86826 28.99469 -31.29207 -0.02476 0.00738 0.03957 4.63262 -2.40122 3.87314 -9.70099 3.83556 38.38348 -111.48187 -49.25473 -88.36958 -61.63062 62.03247 -72.01647 24.04457 4.97004 -17.62022 -30.79412 -18.05698 48.40143 104.67870 -41.93998 87.77177 -36.34472 28.68123 64.29401 39.25837 -21.32027 -21.03508 -3.29073 -14.35030 -25.33260 -15.32750 10.69230 46.01456 35.82618 -0.03415 0.02990 -29.20317 0.98446 -78.17204 -26.75804 18.61324 2.50692 58.80510 41.45765 -47.60059 -25.88676 0.01129 -0.00219 6.77932 -49.04273 7.96752 
41.69434 88.07716 -17.88259 -3.72061 18.68715 191.26486 4.28559 30.23730 -25.01013 -0.02844 0.01105 0.03198 5.21436 -4.50347 -1.66436 -8.28066 5.18518 30.78877 -111.39906 -49.33483 -88.05284 -62.41274 62.45805 -71.58241 21.02495 1.37644 -16.62781 -32.24512 -13.60556 40.17713 92.81915 -35.11116 87.66854 -30.81477 21.47547 40.99055 31.02869 -4.89677 -20.17789 -4.16461 -14.31386 -22.63666 -16.22451 12.28412 42.71745 38.09297 -0.02411 0.02488 -30.78547 0.59940 -78.67650 -26.10320 19.63870 2.61098 59.33067 40.43599 -51.01053 -25.58178 0.00932 0.00217 8.03080 -49.97094 9.88252 
42.26062 87.44381 -17.59852 -4.72789 19.23289 193.97910 3.17936 31.33483 -17.31643 -0.03261 0.02006 0.02733 5.66638 -6.43421 -8.18169 -6.43582 6.53532 22.12187 -111.19811 -48.83371 -87.93479 -62.88117 62.82669 -70.89178 22.43877 3.31378 -17.10559 -32.38499 -8.08817 31.47109 80.40070 -28.85980 87.93919 -30.22666 11.95666 24.14234 34.68672 -2.79441 -16.24644 -4.69380 -14.31844 -19.81936 -16.87796 13.98021 39.76219 39.95815 -0.01703 0.01950 -32.13499 0.22652 -79.01916 -25.45330 20.46294 2.94724 59.82130 39.46761 -54.01153 -25.38778 0.00755 0.00497 9.49834 -50.86058 11.87125 
